<svg xmlns="http://www.w3.org/2000/svg" viewBox="0 0 240 48" fill="none">
  <g transform="translate(2 12) scale(1)">
    <path d="M12 2 C 6.8 2, 4.4 5.2, 4.4 9.2 C 4.4 11.6, 5.2 13.6, 5.6 16 C 5.9 17.8, 6 19.4, 6.6 20.6 C 7.1 21.6, 8 22, 8.6 22 C 9.6 22, 9.6 18, 10.4 16.6 C 10.9 15.8, 11.4 15.8, 12 15.8 C 12.6 15.8, 13.1 15.8, 13.6 16.6 C 14.4 18, 14.4 22, 15.4 22 C 16 22, 16.9 21.6, 17.4 20.6 C 18 19.4, 18.1 17.8, 18.4 16 C 18.8 13.6, 19.6 11.6, 19.6 9.2 C 19.6 5.2, 17.2 2, 12 2 Z" fill="#6E5BFF"></path>
    <path d="M9 5.5 C 8 6.5, 7.6 8, 7.6 9.4" stroke="#fff" stroke-width="1.6" stroke-linecap="round" opacity=".55"></path>
    <path d="M16.5 4.2 C 16.6 5.5, 16.8 6, 17.5 6.2 C 18.2 6.4, 18.6 6.5, 19 6.6 C 18.6 6.7, 18.2 6.8, 17.5 7 C 16.8 7.2, 16.6 7.7, 16.5 9 C 16.4 7.7, 16.2 7.2, 15.5 7 C 14.8 6.8, 14.4 6.7, 14 6.6 C 14.4 6.5, 14.8 6.4, 15.5 6.2 C 16.2 6, 16.4 5.5, 16.5 4.2 Z" fill="#6E5BFF"></path>
  </g>
  <text x="36" y="32" font-family="Sora, Inter, sans-serif" font-size="22" font-weight="700" fill="#1A1A1F" letter-spacing="-0.03em">dental<tspan fill="#6E5BFF">.</tspan>clinic</text>
</svg>